<svg id="Layer_1" data-name="Layer 1" xmlns="http://www.w3.org/2000/svg" viewBox="0 0 780 440"><rect width="780" height="440" fill="#0a3960"/><path d="M257.4,141.07a153.91,153.91,0,0,0-22.06,79.63H390Z" fill="#3b5998"/><path d="M333.57,76.71a157.18,157.18,0,0,0-77,65.16l134.25,80.62Z" fill="#2079c3"/><path d="M241.36,132a171.58,171.58,0,0,0-24.57,88.72H389.1Z" fill="#2b87d3"/><path d="M371.36,67.16a153.75,153.75,0,0,0-37.92,9.55L390,220.7Z" fill="#213154"/><path d="M390,66a157.06,157.06,0,0,0-18.64,1.12L390,220.7Z" fill="#1a2642"/><path d="M369.1,48.5h0a172.31,172.31,0,0,0-42.53,10.71L390,220.7V47.25A175.72,175.72,0,0,0,369.1,48.5Z" fill="#0c5689"/><path d="M542.31,193.77A154.69,154.69,0,0,0,390,66V220.7Z" fill="#56adf5"/><path d="M235.34,220.7A154.65,154.65,0,0,0,390,375.35V220.7Z" fill="#116daa"/><path d="M390,220.7l70.15,137.82a155.82,155.82,0,0,0,16.1-9.45,154.6,154.6,0,0,0,51.57-198.53Z" fill="#3896e3"/><path d="M390,220.7V393.9a173.39,173.39,0,0,0,20.87-1.26A171.41,171.41,0,0,0,453.33,382a174,174,0,0,0,85.17-72.08Z" fill="#2b87d3"/><path d="M167.35,268.68c4.74-1.62,9.55-3,14.13-5,1.16-.45,2.34-.85,3.51-1.28s2.29-1,3.44-1.45c2.27-1,4.58-1.95,6.82-3A185.54,185.54,0,0,0,221,242.75a206.88,206.88,0,0,0,23.16-18.9c3.6-3.45,7.15-7,10.48-10.67a121.38,121.38,0,0,0,9.85-11.26,110.71,110.71,0,0,1-9.11,11.94c-3.35,3.72-6.92,7.25-10.54,10.71a207.72,207.72,0,0,1-23.26,19,186,186,0,0,1-25.85,15.28c-2.26,1.09-4.58,2-6.87,3.06s-4.64,1.9-7,2.75A146.4,146.4,0,0,1,167.35,268.68Z" fill="#fff"/><path d="M237.61,207.82c2.28-.35,4.53-.79,6.77-1.29,2.26-.34,4.5-.79,6.73-1.28a104.92,104.92,0,0,0,13.17-3.8l.68-.24v.71a115,115,0,0,1-.88,13.63c-.3,2.26-.6,4.51-1.07,6.75a62.3,62.3,0,0,1-2,6.53c.45-2.23.81-4.46,1.08-6.71s.74-4.45,1-6.69a111,111,0,0,0,.88-13.51l.68.47a105.05,105.05,0,0,1-13.3,3.83c-2.25.51-4.52.93-6.79,1.32A53.48,53.48,0,0,1,237.61,207.82Z" fill="#fff"/><path d="M496.87,338.62c.1,1.05.17,2.08.24,3.12-.09,1-.15,2.05-.21,3.08-.11,2.06-.18,4.11-.21,6.17s0,4.11.1,6.16c.06,1,.11,2.05.22,3.07-.09,1-.07,2.06-.14,3.12-.34-1-.61-2-.86-3s-.15-2.07-.22-3.11q-.14-3.12-.1-6.22t.22-6.21l.19-3.1C496.32,340.65,496.56,339.63,496.87,338.62Z" fill="#fff"/><path d="M496.87,368.22a5.25,5.25,0,0,1,.36.77c-.05.22-.08.44-.12.66-.07.45-.13.89-.18,1.34a11.69,11.69,0,0,0-.09,1.31,3.06,3.06,0,0,0,.05.56l-.15.24c-.07.06,0,.19.13.23a.37.37,0,0,1-.51.15,1.53,1.53,0,0,1-.44-.38,3.84,3.84,0,0,1-.08-.79,13.41,13.41,0,0,1,.09-1.44c.06-.46.12-.92.2-1.38l.11-.69A4.42,4.42,0,0,1,496.87,368.22Z" fill="#fff"/><path d="M509.47,338.62c.12,1.05.19,2.09.26,3.13l-.21,3.08q-.18,3.09-.29,6.18c-.05,2.06-.08,4.12,0,6.18.05,1,.09,2,.2,3.05a17.88,17.88,0,0,0,.06,3.1,13.64,13.64,0,0,1-1.06-3c-.11-1.05-.15-2.09-.2-3.13-.06-2.09,0-4.16,0-6.23s.17-4.15.29-6.22l.2-3.1C509,340.65,509.17,339.63,509.47,338.62Z" fill="#fff"/><path d="M509.47,369.05a7.31,7.31,0,0,1,.46.87c0,.27,0,.55,0,.83,0,.56,0,1.11,0,1.66A11.56,11.56,0,0,0,510,374a1.79,1.79,0,0,0,.09.32s0,.05,0,0,0,0-.08-.06a.24.24,0,0,0-.18,0c-.17.14.05.13.16.07a2.76,2.76,0,0,0,.44-.2,2.26,2.26,0,0,1,0,.52.69.69,0,0,1-.47.6.47.47,0,0,1-.39-.06.81.81,0,0,1-.24-.19,1.19,1.19,0,0,1-.18-.32,2.24,2.24,0,0,1-.14-.5,10.9,10.9,0,0,1-.14-1.77c0-.57,0-1.14,0-1.71l0-.85A5.87,5.87,0,0,1,509.47,369.05Z" fill="#fff"/><path d="M521.71,338.62c.08,1.05.13,2.09.18,3.13s-.17,2.06-.24,3.09c-.12,2.06-.21,4.12-.21,6.18s0,4.12.26,6.16c.09,1,.21,2,.39,3,0,.51,0,1,0,1.55s.09,1,.13,1.57a23.51,23.51,0,0,1-1.17-2.95c-.18-1-.3-2.08-.4-3.12-.21-2.08-.25-4.17-.26-6.25s.09-4.17.21-6.24q.11-1.56.24-3.12C521.13,340.64,521.38,339.62,521.71,338.62Z" fill="#fff"/><path d="M522.27,369.88c.15.3.25.57.37.84a6.36,6.36,0,0,0-.08.75,3.43,3.43,0,0,0,.1,1.33c.1.14,0,.08.11.08s.14,0,.23-.06.17-.09.22-.13a.36.36,0,0,0,.15-.31,1.2,1.2,0,0,0,.28-.74,1.3,1.3,0,0,1,.72.75,1.41,1.41,0,0,1-.51,1.07,2.2,2.2,0,0,1-.46.27,1.91,1.91,0,0,1-.52.15,1,1,0,0,1-.71-.16,1.18,1.18,0,0,1-.42-.52,4.24,4.24,0,0,1-.19-1.79c0-.28.05-.55.08-.82A3.49,3.49,0,0,1,522.27,369.88Z" fill="#fff"/><path d="M140,291.6a.83.83,0,0,0-.77.54,1.41,1.41,0,0,0,0,.95,1.51,1.51,0,0,0,1.47.89,6.4,6.4,0,0,0,1.95-.31,15.8,15.8,0,0,0,1.9-.66,16.06,16.06,0,0,0,3.58-1.81,15.44,15.44,0,0,0,3-2.67l1.54-1.78-.68,2.25-2.11,7-.68-.6a47.87,47.87,0,0,0,14.26-9.66l1.49-1.46-.67,2a45.53,45.53,0,0,0-1.61,6.2l-.69-.55a3.14,3.14,0,0,1,1.28-.19,10.45,10.45,0,0,1,1.14.13c.73.12,1.44.3,2.12.43a2.13,2.13,0,0,0,1.75-.16,5.3,5.3,0,0,0,1.39-1.37l.35-.46.4.41a13.07,13.07,0,0,0,1.24,1.14,5,5,0,0,0,1.33.82,2.11,2.11,0,0,0,2.62-.83l.41.22a.46.46,0,0,0,.05.59.84.84,0,0,0,.67.36,2.54,2.54,0,0,0,1.52-.86,2.56,2.56,0,0,1-1.5,1.1,1.12,1.12,0,0,1-1-.36.87.87,0,0,1-.15-1.11l.83-1.17-.43,1.39a2.24,2.24,0,0,1-1.36,1.36,3.24,3.24,0,0,1-2,.13,4.72,4.72,0,0,1-1.71-.84,15.68,15.68,0,0,1-1.32-1.24l.76-.05a5.86,5.86,0,0,1-1.69,1.63,2.84,2.84,0,0,1-1.23.4,4.42,4.42,0,0,1-1.2-.11c-.73-.15-1.42-.32-2.11-.43a3.84,3.84,0,0,0-1.85,0l-.86.34.17-.89a47.58,47.58,0,0,1,1.64-6.34l.83.52a48.76,48.76,0,0,1-14.56,9.85l-1,.44.31-1,2.11-7,.86.47a16.6,16.6,0,0,1-7,4.78,17,17,0,0,1-2.09.46,7.06,7.06,0,0,1-2.16.08,1.86,1.86,0,0,1-1.69-1.35,1.53,1.53,0,0,1,.19-1.07A.88.88,0,0,1,140,291.6Z" fill="#fff"/><path d="M185,292.35a8.11,8.11,0,0,0,3.17-1.14c1-.54,1.93-1.24,3-1.71a21.43,21.43,0,0,1,6.83-1.61l.44,0,.09.43a16.17,16.17,0,0,1,.27,3.87l-.62-.51a13.21,13.21,0,0,0,5.67-3l.57-.51.24.73.73,2.19-.76-.25a5.88,5.88,0,0,1,2.16-.81,10.36,10.36,0,0,1,2.22-.14,7.19,7.19,0,0,1,2.22.41,3.39,3.39,0,0,1,1.08.62,1.77,1.77,0,0,1,.61,1.29l-.83-.38,3.21-2.82.48-.41.29.55a2.73,2.73,0,0,0,2,1.29,12.06,12.06,0,0,0,2.7.08c.92,0,1.9-.14,2.85-.21s1.91-.15,2.86-.22l-2.79.69c-.94.21-1.84.45-2.82.64a7.57,7.57,0,0,1-3,0,3.76,3.76,0,0,1-2.65-1.79l.77.14-3.21,2.81-.83.73v-1.11c0-.36-.43-.76-1-1a6.05,6.05,0,0,0-1.92-.35,8.85,8.85,0,0,0-2,.13,4.91,4.91,0,0,0-1.78.64l-.55.37-.2-.62-.73-2.2.81.22a14.35,14.35,0,0,1-6.1,3.23l-.65.16,0-.67a15.2,15.2,0,0,0-.25-3.63l.52.41a19.8,19.8,0,0,0-6.51,1.55l-3.17,1.29A7.51,7.51,0,0,1,185,292.35Z" fill="#fff"/><path d="M136.69,307.94c.8-.3,1.58-.6,2.33-.93a9.82,9.82,0,0,1,1.16-.38c.39-.12.77-.25,1.15-.4a21.29,21.29,0,0,0,4.33-2.21l.59-.39.17.69.75,3c.06.22.13.31.18.33a.73.73,0,0,0,.43,0,4.46,4.46,0,0,0,1.32-.44,25.05,25.05,0,0,1,2.84-1.41,3.42,3.42,0,0,1,1.71,0,2.2,2.2,0,0,1,1.35.91,2.85,2.85,0,0,0-2.76,0,20.44,20.44,0,0,0-2.7,1.34,5.71,5.71,0,0,1-1.62.53,1.7,1.7,0,0,1-1.07-.16,1.5,1.5,0,0,1-.65-.93l-.75-3,.76.3a23.49,23.49,0,0,1-4.52,2.31c-.4.15-.8.29-1.21.42a5.84,5.84,0,0,1-1.23.31A14.6,14.6,0,0,1,136.69,307.94Z" fill="#fff"/><path d="M167,307.44a28.49,28.49,0,0,0,3.3-2.56l.76-.71c.25-.23.53-.43.79-.66q.76-.69,1.47-1.44l.48-.51.32.62a15,15,0,0,1,1.61,5l-.78-.35a14.58,14.58,0,0,1,3.06-1.38c1-.36,2.07-.68,3.11-1l3.11-.88.75-.23.26-.1a3.72,3.72,0,0,0,.3-.22,4.55,4.55,0,0,1,.76-.5,1.81,1.81,0,0,1,1.08-.2l.4.34c0-.1,0,0,.13.07a2.3,2.3,0,0,0,.35.2,6.51,6.51,0,0,0,.8.37c.55.23,1.13.43,1.71.62s1.16.35,1.73.47a2.8,2.8,0,0,0,.76.08,5.41,5.41,0,0,0,.81-.21,3.17,3.17,0,0,1,1.09-.19,1.78,1.78,0,0,1,1.15.54c.53.59.63,1.23,1,1.56s.85.26,1.41,0a5.85,5.85,0,0,1,.89-.33,1,1,0,0,1,.93.16c-.61-.3-1.12.2-1.64.51a3,3,0,0,1-.91.44,1.38,1.38,0,0,1-1.14-.23,12.4,12.4,0,0,1-1.23-1.41c-.27-.33-.61-.3-1.21-.11a5.71,5.71,0,0,1-1,.25,3.33,3.33,0,0,1-1.08-.09c-.63-.14-1.24-.31-1.84-.5s-1.19-.4-1.78-.65c-.3-.12-.59-.25-.89-.4l-.45-.27a1.37,1.37,0,0,1-.52-.58l.4.34a1.63,1.63,0,0,0-1.07.5c-.11.08-.2.16-.35.26a2.83,2.83,0,0,1-.49.21l-.79.25-3.12.89c-1,.3-2,.61-3.06,1a14,14,0,0,0-2.82,1.27l-.68.43-.1-.78a14.18,14.18,0,0,0-1.5-4.64l.81.11c-.49.52-1,1-1.54,1.5-.27.23-.52.49-.8.71s-.6.4-.9.59A21.11,21.11,0,0,1,167,307.44Z" fill="#fff"/><path d="M211.68,305.14a1.27,1.27,0,0,0,1.09.44,1.57,1.57,0,0,0,1,0c.74-.18,1.51-.72,2.43-1a8.82,8.82,0,0,1,2.79-.51,9.58,9.58,0,0,1,1.42.08,5.43,5.43,0,0,1,1.25.8c-.49.05-.95.1-1.39.19a8.79,8.79,0,0,0-1.26-.07,7.81,7.81,0,0,0-2.48.45c-.78.25-1.51.79-2.52,1.06a2.8,2.8,0,0,1-1.62-.06A1.49,1.49,0,0,1,211.68,305.14Z" fill="#fff"/><path d="M563.44,116.56l-.71,3-.27-.23a18.51,18.51,0,0,0,3.6-2.53c.54-.49,1-1,1.56-1.53a15,15,0,0,0,1.43-1.65l.68-.89.21,1.1a4.74,4.74,0,0,0,3.48,3.3,5.94,5.94,0,0,0,2.54.2,3.46,3.46,0,0,0,2.11-1.11l.77-.92.11,1.2.28,3.16-.74-.4a28.48,28.48,0,0,0,5.72-4.08l.39-.35.35.41a3.61,3.61,0,0,0,1.1.72,12.79,12.79,0,0,0,1.37.58,6.16,6.16,0,0,0,1.32.36h0s.08,0,.11,0a1.28,1.28,0,0,1,.27-.05,2.15,2.15,0,0,1,.51,0,4.41,4.41,0,0,1,.84.24,3.57,3.57,0,0,0,1.35.31,9.23,9.23,0,0,0,1.46-.09c1-.13,2-.28,3-.44,2-.33,4-.8,6.05-1.14s4-.88,6-1.41c-1.9.81-3.86,1.52-5.84,2.14a38,38,0,0,1-6.06,1.4c-1,.16-2.06.31-3.09.44a10.52,10.52,0,0,1-1.62.1,4.63,4.63,0,0,1-1.65-.37,3.5,3.5,0,0,0-.65-.19,1.09,1.09,0,0,0-.25,0l-.11,0-.08,0a.84.84,0,0,1-.24,0,3.9,3.9,0,0,1-.9-.17c-.26-.07-.51-.16-.77-.25a13.47,13.47,0,0,1-1.47-.62,4.36,4.36,0,0,1-1.45-1l.73.06a29.77,29.77,0,0,1-5.92,4.22l-.67.36-.06-.75-.29-3.16.88.28a4.43,4.43,0,0,1-2.72,1.45,7.14,7.14,0,0,1-5.59-1.67,4.76,4.76,0,0,1-1.57-2.63l.89.21a22.56,22.56,0,0,1-1.49,1.75,11.3,11.3,0,0,1-1.75,1.49,18.93,18.93,0,0,1-4,2.21l-.41.17.14-.4Z" fill="#fff"/><path d="M612.22,117.93a18,18,0,0,1,2.69-3.71l.43-.47.34.64a6.29,6.29,0,0,1,.53,1.81,8,8,0,0,1,.07,1.89l-.44-.54a11.18,11.18,0,0,0,3.66-.51,13,13,0,0,1,2-.32c.67,0,1.31-.07,2-.08a10,10,0,0,1,2,.16,6.75,6.75,0,0,1,1.92.75,7.49,7.49,0,0,0,3.57.5l-.34.15a9.87,9.87,0,0,1,2.67-1.93,2.76,2.76,0,0,1,.92-.23,1.82,1.82,0,0,1,1,.31,4.2,4.2,0,0,1,1,1.41c.24.33.3.32.91.29a13,13,0,0,1,1.53-.08l3.13,0c-1,.33-2,.58-3,.84a6.89,6.89,0,0,1-1.57.2l-.41,0a2.14,2.14,0,0,1-.54-.08,1.58,1.58,0,0,1-.86-.68c-.32-.54-.47-1-.73-1.14a.8.8,0,0,0-.43-.13,2.07,2.07,0,0,0-.58.15,8.82,8.82,0,0,0-2.34,1.72l-.15.14H631a8.37,8.37,0,0,1-4-.6,6,6,0,0,0-1.69-.67,9.06,9.06,0,0,0-1.83-.14,16,16,0,0,0-3.74.38,12.07,12.07,0,0,1-4,.52l-.48-.05,0-.49a6.43,6.43,0,0,0-.06-1.64,8.91,8.91,0,0,0-.43-1.59l.76.17A22.28,22.28,0,0,0,612.22,117.93Z" fill="#fff"/><path d="M612.22,132.21a1.31,1.31,0,0,0,.85.19c.27,0,.5-.19.77-.18a15.75,15.75,0,0,0,1.75-.46,5,5,0,0,1,2-.24,5.38,5.38,0,0,1,1.91.72,14.69,14.69,0,0,0,1.57.85,5.18,5.18,0,0,0,1.66.2c.6,0,1.17-.13,1.76-.09s1.23-.06,1.57-.61a1.16,1.16,0,0,1-.5.85,3.62,3.62,0,0,1-.88.53,4.46,4.46,0,0,1-1.94.32,6.21,6.21,0,0,1-2-.26,17,17,0,0,1-1.72-.91,4.43,4.43,0,0,0-1.55-.61,4,4,0,0,0-1.63.21,16.7,16.7,0,0,1-1.86.49A1.67,1.67,0,0,1,612.22,132.21Z" fill="#fff"/><path d="M562.54,135.37a.92.92,0,0,0,.92.34,2.57,2.57,0,0,0,1-.34c.58-.33,1.15-.85,1.78-1.24.31-.21.61-.41.94-.59l1-.46c.67-.29,1.35-.58,2-.85a47.54,47.54,0,0,0,7.82-3.59l.62-.39.13.72a13.59,13.59,0,0,1,.18,3.1q0,.77-.12,1.53a7.82,7.82,0,0,1-.3,1.6l-.52-.68a15.94,15.94,0,0,0,6.35-2.13l.14-.08h.16l2.35.2a20.75,20.75,0,0,1,2.36.25l2.33.4a2.82,2.82,0,0,0,2.22-.3,2.94,2.94,0,0,1-2.25.78l-2.38,0a23.36,23.36,0,0,1-2.36-.15l-2.36-.2.3-.07a16.77,16.77,0,0,1-6.76,2.26l-.77.09.25-.76a7.07,7.07,0,0,0,.25-1.35c.05-.48.09-1,.11-1.46a12.84,12.84,0,0,0-.16-2.86l.76.32a48,48,0,0,1-8,3.66q-1,.4-2,.84l-1,.47c-.31.16-.66.27-1,.42-.68.26-1.26.63-2,.9a2.75,2.75,0,0,1-1.14.17A1,1,0,0,1,562.54,135.37Z" fill="#fff"/><path d="M599.06,133a5.88,5.88,0,0,0,1.09-.72c.39-.11.77-.26,1.16-.41.78-.3,1.57-.63,2.4-.9a4.53,4.53,0,0,1,1.41-.27,2.3,2.3,0,0,1,1.46.57c.39.33.65.73.87.89a.55.55,0,0,0,.28.34,1.51,1.51,0,0,0,.61.11,1.36,1.36,0,0,1-.61.42,1.15,1.15,0,0,1-.89-.08c-.44-.36-.64-.71-.9-.92-.49-.45-1.13-.38-1.92-.11s-1.55.58-2.35.88c-.39.16-.8.3-1.22.45A3.18,3.18,0,0,1,599.06,133Z" fill="#fff"/><path d="M390,220.7l153.61-80a174.32,174.32,0,0,1,11.6,27.95Z" fill="#def1fe"/><circle cx="390" cy="220.7" r="69.47" fill="#0a3960"/><path d="M518.24,145.28c-6.36,1.37-12.68,2.93-18.88,4.87a141.47,141.47,0,0,0-18.14,7l-2.2,1.05-2.16,1.11c-1.45.71-2.86,1.53-4.28,2.3s-2.81,1.62-4.21,2.43l-4.13,2.56a90.43,90.43,0,0,0-7.92,5.61,29.14,29.14,0,0,0-6.5,7,14.4,14.4,0,0,0-2.32,9,13.32,13.32,0,0,0,4.06,8.26,16.24,16.24,0,0,0,3.82,2.79,26.36,26.36,0,0,0,4.38,1.93,43.58,43.58,0,0,0,9.41,2c6.42.74,12.92.3,19.38-.21a133.76,133.76,0,0,0,19.2-3,149.76,149.76,0,0,0,18.57-5.74c3-1.12,6.06-2.33,9.07-3.55a59.13,59.13,0,0,0,8.54-4.52,64.48,64.48,0,0,0,7.78-5.74,32.18,32.18,0,0,0,6.33-7.17A13.5,13.5,0,0,0,559.8,169a8.4,8.4,0,0,0,.13-2.29,11,11,0,0,0-.49-2.27,17.18,17.18,0,0,0-5.1-7.85A24.08,24.08,0,0,0,546,152a53,53,0,0,0-9.42-2.11,160.91,160.91,0,0,0-19.4-1.23c-6.49-.07-13,.16-19.46.73-3.23.29-6.47.66-9.67,1.19a45.14,45.14,0,0,0-9.43,2.39,45.42,45.42,0,0,1,9.39-2.61c3.2-.6,6.43-1,9.67-1.41,6.47-.71,13-1.08,19.5-1.16a127.78,127.78,0,0,1,19.54,1.11,55,55,0,0,1,9.6,2.15,25.44,25.44,0,0,1,8.66,4.76,18.21,18.21,0,0,1,5.39,8.31,11.25,11.25,0,0,1,.54,2.49,9.15,9.15,0,0,1-.15,2.56,14.2,14.2,0,0,1-1.89,4.66,32.56,32.56,0,0,1-6.52,7.41,63.19,63.19,0,0,1-7.91,5.83,59.64,59.64,0,0,1-8.69,4.61c-3,1.22-6,2.43-9.1,3.56A153.57,153.57,0,0,1,508,201a135.94,135.94,0,0,1-19.34,3c-6.49.51-13.05,1-19.58.2a43.64,43.64,0,0,1-9.63-2.06,27.3,27.3,0,0,1-4.54-2,17.62,17.62,0,0,1-4-2.95,14.36,14.36,0,0,1-4.36-8.89,15.43,15.43,0,0,1,2.47-9.59,30.29,30.29,0,0,1,6.72-7.24,92.72,92.72,0,0,1,8-5.67,118.91,118.91,0,0,1,17.19-9.33,141.89,141.89,0,0,1,18.35-6.71C505.5,148,511.85,146.52,518.24,145.28Z" fill="#fff"/><path d="M544.71,371a1.4,1.4,0,0,0,.55,1.43l-.19,0c.84-.49,1.71-.92,2.57-1.36.44-.21.86-.44,1.3-.64s.88-.35,1.31-.55a11.77,11.77,0,0,0,4.48-3.13l.51-.66.35.76a7.55,7.55,0,0,0,2,2.2c.39.35.8.69,1.2,1.08a7.33,7.33,0,0,1,.59.64,1.72,1.72,0,0,1,.42,1l-.77-.43a7,7,0,0,1,1.27-.57c.41-.15.82-.28,1.23-.42l1.19-.4a5.93,5.93,0,0,0,1.07-.47l.62-.38.14.69c0,.21.23.4.57.56a6.94,6.94,0,0,0,1.12.4,8.57,8.57,0,0,1,1.28.45,1.78,1.78,0,0,1,1.09,1.25l-.83-.23a15.21,15.21,0,0,1,6.12-3.46,15.62,15.62,0,0,0-5.42,4.13l-.5.61-.32-.84a1.15,1.15,0,0,0-.59-.56,7,7,0,0,0-1.12-.39,10.56,10.56,0,0,1-1.28-.46,1.91,1.91,0,0,1-1.1-1.24l.76.31a6.58,6.58,0,0,1-1.26.57l-1.24.42-1.19.4a5.93,5.93,0,0,0-1.07.47l-.9.56.13-1c0-.14-.35-.62-.7-.94s-.77-.69-1.17-1.05a15.63,15.63,0,0,1-1.2-1.12,5.27,5.27,0,0,1-1-1.43l.86.1a9.06,9.06,0,0,1-2.26,2,18.79,18.79,0,0,1-2.61,1.4l-1.33.6c-.45.18-.92.31-1.38.46-.91.29-1.83.57-2.72.91l-.13.05-.07-.07A1.56,1.56,0,0,1,544.71,371Z" fill="#fff"/><path d="M577.45,371.47a5.73,5.73,0,0,0,1.95-.91c.63-.28,1.28-.62,2-.94a6.23,6.23,0,0,1,2.29-.63,3.62,3.62,0,0,1,2.42.63,2.37,2.37,0,0,1,.82,1.11,2.8,2.8,0,0,1,0,1.25c0,.06,0-.1-.09-.14s0,0,0,0a1.1,1.1,0,0,0,.4,0l1.06-.17c.72-.14,1.43-.27,2.13-.46a15.25,15.25,0,0,0,2.21-.2,8.62,8.62,0,0,1-2,1.19c-.73.16-1.46.32-2.19.45-.37.07-.73.13-1.11.18a2.24,2.24,0,0,1-.69,0,1,1,0,0,1-.49-.2.77.77,0,0,1-.28-.64c.05-.55.1-.68,0-.93a1.5,1.5,0,0,0-.48-.63,2.65,2.65,0,0,0-1.75-.42,5,5,0,0,0-1.93.54c-.65.29-1.3.66-2,.94A4.56,4.56,0,0,1,577.45,371.47Z" fill="#fff"/><path d="M544.78,385.09a18.23,18.23,0,0,1,1.39-1.39l.76-.64c.27-.18.57-.31.85-.48a30.88,30.88,0,0,1,3.53-1.69l.29-.11.39.51a.59.59,0,0,0,.13.14,1.34,1.34,0,0,0,.4.18,3.4,3.4,0,0,0,1,.13,3,3,0,0,0,1.88-.66l.66-.63.18.89a2.86,2.86,0,0,0,1.39,1.65,2.41,2.41,0,0,0,2,.42c.07,0,.28-.22.55-.36a1.12,1.12,0,0,1,1.12,0,2.84,2.84,0,0,1,.56.58c.12.11.23.23.35.36a2.18,2.18,0,0,0,2.25.4,2.5,2.5,0,0,1-2.73.37c-.52-.16-.85-.84-1-.87s-.09,0-.68.38a2.36,2.36,0,0,1-1.62.11,4.61,4.61,0,0,1-1.35-.57,3.8,3.8,0,0,1-1.84-2.31l.83.27a3.94,3.94,0,0,1-2.54.94,4.9,4.9,0,0,1-1.35-.17,2.77,2.77,0,0,1-.68-.32,1.3,1.3,0,0,1-.54-.82l.68.39a31.46,31.46,0,0,0-3.42,1.63c-.28.15-.54.33-.82.48l-.88.37Z" fill="#fff"/><path d="M569.92,384.25c.71-.31,1.41-.6,2.12-.88s1.41-.6,2.14-.83c1.47-.38,2.92-.8,4.39-1.2l1.15-.32-.57,1a.73.73,0,0,0,.29.8c.34.25.4.23.91,0s.89-.46,1.35-.71c.23-.13.46-.25.72-.37a2.83,2.83,0,0,1,.93-.29.79.79,0,0,1,.2,0l.12,0,.05,0h0c-.13,0,0,0,0,0l.35-.06.75-.16c.52-.11,1-.22,1.58-.29a4.47,4.47,0,0,1,1.77.06,2.88,2.88,0,0,1,1.33,1.27c.29.42.53.65.88.7a3.54,3.54,0,0,0,1.33-.18,4.54,4.54,0,0,1,1.73-.19,8,8,0,0,1,1.58.49,6.8,6.8,0,0,0,1.42.32c.49.05,1,.19,1.49.23,1,.11,2.06.11,3.11.13a21.38,21.38,0,0,1-3.11.61,6.34,6.34,0,0,1-1.63,0,9.21,9.21,0,0,1-1.61-.39,7.54,7.54,0,0,0-1.39-.44,3.5,3.5,0,0,0-1.34.17,4.3,4.3,0,0,1-1.74.2,1.85,1.85,0,0,1-.94-.43,3.66,3.66,0,0,1-.6-.68c-.3-.45-.57-.83-.83-.9a3.59,3.59,0,0,0-1.32,0c-.49.06-1,.16-1.5.27l-.76.17-.43.07a1,1,0,0,1-.39,0l-.07,0h0a2.09,2.09,0,0,0-.55.2c-.22.1-.44.22-.67.34-.45.24-.9.51-1.41.74a2.25,2.25,0,0,1-1,.26,1.67,1.67,0,0,1-1-.42,2,2,0,0,1-.59-.85,1.56,1.56,0,0,1,0-1.14l.59.7c-1.47.41-2.93.8-4.39,1.23-.74.17-1.5.25-2.26.39S570.69,384.15,569.92,384.25Z" fill="#fff"/><path d="M380.39,241c19.55,0,30.23-16.19,30.23-30.23,0-.46,0-.91,0-1.37a21.48,21.48,0,0,0,5.3-5.5,20.8,20.8,0,0,1-6.1,1.67,10.62,10.62,0,0,0,4.67-5.87,21.22,21.22,0,0,1-6.74,2.57A10.64,10.64,0,0,0,389.61,212a30.15,30.15,0,0,1-21.9-11.1A10.64,10.64,0,0,0,371,215.09a10.7,10.7,0,0,1-4.81-1.33v.13a10.63,10.63,0,0,0,8.52,10.42,10.75,10.75,0,0,1-2.8.37,11,11,0,0,1-2-.19,10.66,10.66,0,0,0,9.93,7.38,21.42,21.42,0,0,1-15.73,4.4A30.08,30.08,0,0,0,380.39,241" fill="#fff"/></svg>